<svg width="277" height="80" viewBox="0 0 277 80" fill="none" xmlns="http://www.w3.org/2000/svg">
<path fill-rule="evenodd" clip-rule="evenodd" d="M0 18.9674L32.8526 -1.11846e-05L50.6052 13.6127L34.9399 4.56836L5 21.8542V56.4258L34.9399 73.7116L64.8798 56.4258V36.1263L69.1005 59.7625L34.9399 79.4851L0 59.3126V18.9674Z" fill="black"/>
<path d="M112.622 37.8222C112.622 33.1743 113.824 29.5923 116.229 27.0762C118.621 24.5726 121.825 23.3207 125.841 23.3207C129.051 23.3207 131.765 24.1202 133.984 25.7191C136.19 27.3179 137.51 29.4374 137.944 32.0774H132.757C132.397 30.7264 131.61 29.6667 130.396 28.8982C129.181 28.1174 127.7 27.7269 125.952 27.7269C123.535 27.7269 121.577 28.4396 120.077 29.865C118.602 31.2655 117.865 33.1681 117.865 35.5726V39.923C117.865 42.1912 118.565 44.0256 119.966 45.4261C121.391 46.8515 123.256 47.5642 125.562 47.5642C127.743 47.5642 129.534 46.9197 130.935 45.6306C132.348 44.3292 133.11 42.6002 133.222 40.4436H124.539V36.4092H138.706V51.4126H134.635L134.281 47.2295H134.021C133.141 48.7169 131.895 49.8509 130.284 50.6318C128.673 51.4002 126.832 51.7845 124.762 51.7845C120.982 51.7845 118.001 50.545 115.82 48.0661C113.688 45.5997 112.622 42.185 112.622 37.8222Z" fill="black"/>
<path d="M142.778 41.3174C142.778 38.0701 143.664 35.523 145.436 33.6763C147.246 31.7923 149.657 30.8503 152.668 30.8503C155.643 30.8503 158.041 31.7799 159.863 33.6391C161.698 35.5106 162.615 38.0701 162.615 41.3174C162.615 44.5028 161.722 47.0436 159.938 48.94C158.19 50.8363 155.767 51.7845 152.668 51.7845C149.644 51.7845 147.233 50.8487 145.436 48.9771C143.664 47.1304 142.778 44.5771 142.778 41.3174ZM147.574 39.7929V42.9535C147.574 44.5028 148.039 45.7174 148.969 46.5974C149.898 47.4774 151.131 47.9174 152.668 47.9174C154.218 47.9174 155.457 47.4836 156.387 46.616C157.316 45.736 157.781 44.5152 157.781 42.9535V39.7929C157.781 38.256 157.31 37.0289 156.368 36.1118C155.438 35.1946 154.205 34.736 152.668 34.736C151.119 34.736 149.88 35.1946 148.95 36.1118C148.033 37.0289 147.574 38.256 147.574 39.7929Z" fill="black"/>
<path d="M170.721 51.4126L163.637 31.2408H168.769L171.632 40.5923L173.454 47.0808H173.677L175.48 40.6295L178.325 31.2408H183.475L176.466 51.4126H170.721Z" fill="black"/>
<path d="M184.497 41.2802C184.497 38.0329 185.365 35.4858 187.1 33.6391C188.848 31.7799 191.215 30.8503 194.202 30.8503C197.003 30.8503 199.246 31.6746 200.932 33.323C202.643 34.9591 203.498 37.2211 203.498 40.1089C203.498 41.0261 203.442 41.7884 203.33 42.3957H189.331V43.4926C189.331 44.8808 189.777 45.9963 190.67 46.8391C191.574 47.6819 192.764 48.1033 194.239 48.1033C195.417 48.1033 196.414 47.843 197.232 47.3225C198.063 46.7895 198.627 46.083 198.924 45.203H203.609C203.176 47.1985 202.122 48.7974 200.449 49.9997C198.714 51.1895 196.644 51.7845 194.239 51.7845C191.19 51.7845 188.804 50.8487 187.081 48.9771C185.359 47.0684 184.497 44.5028 184.497 41.2802ZM189.331 38.7704V39.1608H198.775V38.6216C198.775 37.3822 198.348 36.3906 197.493 35.647C196.65 34.8909 195.528 34.5129 194.128 34.5129C192.69 34.5129 191.531 34.9033 190.651 35.6841C189.771 36.465 189.331 37.4937 189.331 38.7704Z" fill="black"/>
<path d="M211.845 31.2408H218.761V35.0706H212.478V51.4126H207.774V35.2751C207.774 34.2216 207.985 33.3292 208.406 32.5979C208.927 31.6932 210.073 31.2408 211.845 31.2408Z" fill="black"/>
<path d="M226.644 51.4126H221.941V31.2408H226.087L226.644 34.9591H226.96C227.592 33.6453 228.491 32.6351 229.656 31.9286C230.821 31.2098 232.154 30.8503 233.653 30.8503C235.897 30.8503 237.62 31.594 238.822 33.0813C240.024 34.5563 240.625 36.5951 240.625 39.198V51.4126H235.866V39.6813C235.866 36.4588 234.484 34.8475 231.72 34.8475C230.183 34.8475 228.95 35.3991 228.02 36.5022C227.103 37.5929 226.644 39.0244 226.644 40.7968V51.4126Z" fill="black"/>
<path d="M258.12 51.4126H252.115L260.481 37.4318L252.115 23.6554H258.12L261.28 29.1399L264.181 34.5129H264.441L267.453 29.0284L270.465 23.6554H276.395L268.104 37.5061L276.544 51.4126H270.502L267.713 46.6904L264.404 40.7968H264.181L260.76 46.8763L258.12 51.4126Z" fill="black"/>
</svg>
